<svg width="29" height="20" viewBox="0 0 29 20" fill="none" xmlns="http://www.w3.org/2000/svg">
<rect x="0.75" width="28" height="20" rx="10" fill="#636F88"/>
<path fill-rule="evenodd" clip-rule="evenodd" d="M15.1923 3.72481C15.4363 3.96888 15.4363 4.36461 15.1923 4.60869L10.4259 9.37508H20.5837C20.9288 9.37508 21.2087 9.6549 21.2087 10.0001C21.2087 10.3453 20.9288 10.6251 20.5837 10.6251H10.4259L15.1923 15.3915C15.4363 15.6356 15.4363 16.0313 15.1923 16.2754C14.9482 16.5194 14.5525 16.5194 14.3084 16.2754L8.47505 10.442C8.23097 10.1979 8.23097 9.80222 8.47505 9.55814L14.3084 3.72481C14.5525 3.48073 14.9482 3.48073 15.1923 3.72481Z" fill="white"/>
</svg>
