<svg width="12" height="11" viewBox="0 0 12 11" fill="none" xmlns="http://www.w3.org/2000/svg">
<path fill-rule="evenodd" clip-rule="evenodd" d="M1.125 2.73593L1.125 3.80288C1.12638 3.8099 1.13756 3.84606 1.21058 3.90884C1.30299 3.98829 1.45865 4.07684 1.68361 4.15864C2.13044 4.32112 2.77258 4.42896 3.5 4.42896C4.12783 4.42896 4.69425 4.34859 5.1266 4.22086C5.15706 4.1886 5.18899 4.15842 5.22164 4.13035C5.24124 4.1135 5.26153 4.09701 5.28246 4.08087C5.28664 4.07765 5.29082 4.07446 5.29501 4.0713C5.31977 4.0526 5.34544 4.03436 5.37198 4.01657C5.40236 3.99619 5.4338 3.97645 5.46619 3.95732C5.54799 3.90903 5.63585 3.86469 5.72814 3.82409C5.76978 3.80576 5.81233 3.7882 5.85562 3.77137C5.86206 3.76887 5.86852 3.76638 5.875 3.76391V2.73593C5.77941 2.78279 5.67797 2.82521 5.5727 2.86348C5.02422 3.06293 4.29136 3.17896 3.5 3.17896C2.70864 3.17896 1.97578 3.06293 1.4273 2.86348C1.32203 2.82521 1.22059 2.78279 1.125 2.73593ZM6.625 1.80396V3.55509C7.0408 3.47359 7.50915 3.42896 8 3.42896C8.79136 3.42896 9.52422 3.54498 10.0727 3.74443C10.3454 3.84359 10.5925 3.97053 10.7784 4.13035C10.963 4.28913 11.125 4.51547 11.125 4.80396V8.80396C11.125 9.09244 10.963 9.31878 10.7784 9.47756C10.5925 9.63738 10.3454 9.76432 10.0727 9.86348C9.52422 10.0629 8.79136 10.179 8 10.179C7.20864 10.179 6.47578 10.0629 5.9273 9.86348C5.65461 9.76432 5.40754 9.63738 5.22164 9.47756C5.09194 9.36605 4.97345 9.22123 4.91439 9.04496C4.48983 9.13125 4.00756 9.17896 3.5 9.17896C2.70864 9.17896 1.97578 9.06293 1.4273 8.86348C1.15461 8.76432 0.90754 8.63738 0.721638 8.47756C0.536952 8.31878 0.375 8.09244 0.375 7.80396V1.80396C0.375 1.51547 0.536952 1.28913 0.721638 1.13035C0.90754 0.970526 1.15461 0.843588 1.4273 0.744426C1.97578 0.54498 2.70864 0.428955 3.5 0.428955C4.29136 0.428955 5.02422 0.54498 5.5727 0.744426C5.84539 0.843588 6.09246 0.970526 6.27836 1.13035C6.46305 1.28913 6.625 1.51547 6.625 1.80396ZM1.125 4.73594L1.125 5.80288C1.12638 5.8099 1.13756 5.84606 1.21058 5.90884C1.30299 5.98829 1.45865 6.07684 1.68361 6.15864C2.13044 6.32112 2.77258 6.42896 3.5 6.42896C4.01241 6.42896 4.48391 6.37542 4.875 6.2863V5.05282C4.4601 5.13414 3.99192 5.17896 3.5 5.17896C2.70864 5.17896 1.97578 5.06293 1.4273 4.86348C1.32203 4.82521 1.22059 4.78279 1.125 4.73594ZM5.625 5.73593V6.56696C5.62513 6.57268 5.62513 6.5784 5.625 6.5841L5.625 6.80288C5.62638 6.8099 5.63756 6.84606 5.71058 6.90884C5.80299 6.98829 5.95865 7.07684 6.18361 7.15864C6.63044 7.32112 7.27258 7.42896 8 7.42896C8.72742 7.42896 9.36956 7.32112 9.81639 7.15864C10.0413 7.07684 10.197 6.98829 10.2894 6.90884C10.3624 6.84607 10.3736 6.80991 10.375 6.80288V5.73593C10.2794 5.78279 10.178 5.8252 10.0727 5.86348C9.52422 6.06293 8.79136 6.17896 8 6.17896C7.20864 6.17896 6.47578 6.06293 5.9273 5.86348C5.82203 5.8252 5.72059 5.78279 5.625 5.73593ZM10.375 4.80272C10.3751 4.80198 10.3751 4.80162 10.3752 4.80162L10.375 4.80272ZM10.3748 4.80395C10.3725 4.81308 10.3593 4.84878 10.2894 4.90884C10.197 4.98829 10.0413 5.07684 9.81639 5.15864C9.36956 5.32112 8.72742 5.42896 8 5.42896C7.27258 5.42896 6.63044 5.32112 6.18361 5.15864C5.95865 5.07684 5.80299 4.98829 5.71058 4.90884C5.64133 4.84931 5.6277 4.81371 5.6253 4.8042C5.62652 4.79934 5.63102 4.78607 5.6465 4.76515C5.65917 4.74819 5.67914 4.72609 5.71058 4.69907C5.71971 4.69122 5.72945 4.68328 5.73982 4.67527C5.74214 4.67348 5.74451 4.67168 5.74693 4.66985C5.76577 4.65563 5.7864 4.6413 5.80881 4.62693C5.90066 4.56806 6.02489 4.50699 6.18361 4.44927C6.23597 4.43023 6.29102 4.41194 6.34857 4.39448C6.35166 4.39355 6.35475 4.39262 6.35786 4.39168M10.3748 4.80395C10.3725 4.79483 10.3593 4.75913 10.2894 4.69907C10.197 4.61962 10.0413 4.53107 9.81639 4.44927C9.36956 4.28679 8.72742 4.17896 8 4.17896C7.36309 4.17896 6.79155 4.26162 6.35926 4.39126M10.375 7.73593C10.2794 7.78279 10.178 7.8252 10.0727 7.86348C9.52422 8.06293 8.79136 8.17896 8 8.17896C7.20864 8.17896 6.47578 8.06293 5.9273 7.86348C5.82203 7.8252 5.72059 7.78279 5.625 7.73593V8.80288C5.62638 8.8099 5.63755 8.84606 5.71058 8.90884C5.80299 8.98829 5.95865 9.07684 6.18361 9.15864C6.63044 9.32112 7.27258 9.42896 8 9.42896C8.72742 9.42896 9.36956 9.32112 9.81639 9.15864C10.0413 9.07684 10.197 8.98829 10.2894 8.90884C10.3624 8.84606 10.3736 8.8099 10.375 8.80288V7.73593ZM10.3752 8.80162C10.3752 8.80162 10.3751 8.80215 10.375 8.80288L10.3752 8.80162ZM5.62484 8.80162C5.62486 8.80161 5.62496 8.80214 5.625 8.80288L5.62484 8.80162ZM4.875 7.05282V8.2863C4.48391 8.37542 4.01241 8.42896 3.5 8.42896C2.77258 8.42896 2.13044 8.32112 1.68361 8.15864C1.45865 8.07684 1.30299 7.98829 1.21058 7.90884C1.13756 7.84606 1.12638 7.8099 1.125 7.80288V6.73593C1.22059 6.78279 1.32203 6.8252 1.4273 6.86348C1.97578 7.06293 2.70864 7.17896 3.5 7.17896C3.99192 7.17896 4.4601 7.13414 4.875 7.05282ZM1.12484 7.80162C1.12486 7.80162 1.12496 7.80214 1.125 7.80288L1.12484 7.80162ZM5.87516 1.80162C5.87519 1.80162 5.87517 1.80199 5.87503 1.80272L5.87516 1.80162ZM5.87476 1.80395C5.87254 1.81308 5.85929 1.84878 5.78942 1.90884C5.69701 1.98829 5.54135 2.07684 5.31639 2.15864C4.86956 2.32112 4.22742 2.42896 3.5 2.42896C2.77258 2.42896 2.13044 2.32112 1.68361 2.15864C1.45865 2.07684 1.30299 1.98829 1.21058 1.90884C1.14072 1.84878 1.12746 1.81308 1.12524 1.80396C1.12746 1.79483 1.14072 1.75913 1.21058 1.69907C1.30299 1.61962 1.45865 1.53107 1.68361 1.44927C2.13044 1.28679 2.77258 1.17896 3.5 1.17896C4.22742 1.17896 4.86956 1.28679 5.31639 1.44927C5.54135 1.53107 5.69701 1.61962 5.78942 1.69907C5.85928 1.75913 5.87254 1.79483 5.87476 1.80395ZM1.12484 1.80162C1.12486 1.80162 1.12493 1.80198 1.12497 1.80272L1.12484 1.80162Z" fill="#231F20"/>
</svg>
