<svg width="18" height="17" viewBox="0 0 18 17" fill="none" xmlns="http://www.w3.org/2000/svg">
<path fill-rule="evenodd" clip-rule="evenodd" d="M8.99449 2.37784C7.11064 0.62445 4.25708 0.236345 2.05664 2.11645C-0.281984 4.11463 -0.619415 7.47442 1.22706 9.85046C1.94277 10.7714 3.35014 12.1665 4.71567 13.4554C6.09318 14.7556 7.46796 15.9846 8.14612 16.5852L8.15757 16.5953C8.22303 16.6534 8.29651 16.7185 8.36571 16.7706C8.44632 16.8313 8.55475 16.9011 8.6969 16.9435C8.89047 17.0012 9.09891 17.0012 9.29248 16.9435C9.43463 16.9011 9.54306 16.8313 9.62368 16.7706C9.69287 16.7185 9.76634 16.6534 9.8318 16.5954L9.84327 16.5852C10.5214 15.9846 11.8962 14.7556 13.2737 13.4554C14.6392 12.1665 16.0466 10.7714 16.7623 9.85046C18.6033 7.48152 18.3156 4.09687 15.9262 2.11097C13.6984 0.259351 10.8766 0.6237 8.99449 2.37784ZM8.51974 3.68605C7.03754 1.95323 4.64902 1.5456 2.86864 3.0668C1.03219 4.6359 0.781824 7.24043 2.21406 9.08343C2.86138 9.91639 4.198 11.2479 5.57368 12.5464C6.93739 13.8335 8.30106 15.0527 8.97485 15.6494C8.98176 15.6555 8.98836 15.6614 8.99469 15.667C9.00102 15.6614 9.00762 15.6555 9.01453 15.6494C9.68832 15.0527 11.052 13.8335 12.4157 12.5464C13.7914 11.2479 15.128 9.91639 15.7753 9.08343C17.2131 7.23333 16.9847 4.61613 15.1272 3.07228C13.3045 1.55735 10.9471 1.95874 9.46964 3.68605C9.3509 3.82487 9.17737 3.90479 8.99469 3.90479C8.81201 3.90479 8.63848 3.82487 8.51974 3.68605Z" fill="#E61D2A"/>
</svg>
