<svg width="17" height="16" viewBox="0 0 17 16" fill="none" xmlns="http://www.w3.org/2000/svg">
<path fill-rule="evenodd" clip-rule="evenodd" d="M7.27587 0.747838C7.47942 0.498092 7.78708 0.35659 8.10916 0.364579C8.38182 0.371342 8.59395 0.508309 8.71712 0.595971C8.84655 0.688097 8.99633 0.816505 9.15493 0.952482L16.2471 7.03144C16.3363 7.1079 16.4309 7.18891 16.5057 7.26516C16.5887 7.34974 16.6941 7.47356 16.7568 7.64784C16.8385 7.87549 16.8385 8.12451 16.7568 8.35216C16.6941 8.52644 16.5887 8.65026 16.5057 8.73484C16.4309 8.81107 16.3363 8.89206 16.2471 8.9685L9.15492 15.0475C8.99632 15.1835 8.84655 15.3119 8.71712 15.404C8.59395 15.4917 8.38182 15.6287 8.10916 15.6354C7.78708 15.6434 7.47942 15.5019 7.27587 15.2522C7.10357 15.0407 7.06951 14.7905 7.05591 14.64C7.04162 14.4817 7.04164 14.2845 7.04167 14.0755L7.04167 11.253C6.15219 11.3814 5.28517 11.6445 4.47096 12.0351C3.31779 12.5883 2.29782 13.3842 1.4809 14.3683C1.31269 14.571 1.0355 14.6464 0.787793 14.557C0.540082 14.4676 0.375 14.2325 0.375 13.9691V13.4591C0.376109 11.3264 1.16238 9.26837 2.5838 7.67834C3.76935 6.35216 5.32752 5.42875 7.04167 5.02003L7.04167 1.92445C7.04164 1.71554 7.04162 1.51825 7.05591 1.36002C7.06951 1.20945 7.10357 0.959257 7.27587 0.747838ZM8.29172 1.85899C8.29168 1.88745 8.29167 1.91757 8.29167 1.94948V5.52886C8.29167 5.83248 8.07345 6.09219 7.77437 6.14451C6.13352 6.43157 4.63173 7.26303 3.51571 8.51143C2.54544 9.5968 1.92091 10.9367 1.70723 12.3608C2.37941 11.7827 3.12649 11.2937 3.9303 10.9081C5.09018 10.3517 6.34401 10.0221 7.62437 9.93521C7.79708 9.92349 7.96691 9.98393 8.09339 10.1021C8.21987 10.2203 8.29167 10.3857 8.29167 10.5588V14.0505C8.29167 14.0824 8.29168 14.1125 8.29172 14.141C8.31335 14.1225 8.33622 14.1029 8.36045 14.0822L15.4194 8.03164C15.4324 8.02049 15.4447 8.00998 15.4563 8C15.4447 7.99002 15.4324 7.97951 15.4194 7.96836L8.36045 1.91784C8.33622 1.89708 8.31335 1.87749 8.29172 1.85899Z" fill="#1881DC"/>
</svg>
